<svg width="463" height="56" viewBox="0 0 463 56" fill="none" xmlns="http://www.w3.org/2000/svg">
<path d="M122.989 15.1182C127.324 15.1182 130.875 16.1103 133.643 18.0947C136.463 20.0269 138.29 22.6646 139.126 26.0068L131.606 28.1211C131.136 25.7712 130.143 24.1265 128.629 23.1865C127.115 22.1944 125.235 21.6982 122.989 21.6982C120.796 21.6983 119.073 22.1157 117.819 22.9512C116.566 23.7344 115.94 24.8573 115.939 26.3193C115.939 27.886 116.54 29.0355 117.741 29.7666C118.995 30.4977 120.666 31.0456 122.755 31.4111L125.496 31.8809C128.264 32.3509 130.797 33.0043 133.095 33.8398C135.392 34.6754 137.194 35.8768 138.499 37.4434C139.857 39.01 140.536 41.099 140.536 43.71C140.536 47.5742 139.1 50.5768 136.228 52.7178C133.355 54.8588 129.491 55.9296 124.635 55.9297C119.726 55.9297 115.652 54.833 112.414 52.6396C109.176 50.4464 107.192 47.1301 106.461 42.6914L113.981 40.8896C114.399 43.0306 115.104 44.7282 116.096 45.9814C117.088 47.2347 118.315 48.1223 119.777 48.6445C121.292 49.1667 122.911 49.4277 124.635 49.4277C127.193 49.4277 129.152 48.9316 130.51 47.9395C131.919 46.9473 132.624 45.6679 132.624 44.1016C132.624 42.5349 131.972 41.3854 130.666 40.6543C129.36 39.9232 127.428 39.3225 124.869 38.8525L122.206 38.3828C119.595 37.9128 117.219 37.2344 115.078 36.3467C112.937 35.459 111.24 34.2315 109.986 32.665C108.733 31.0984 108.106 29.0872 108.106 26.6328C108.106 22.9774 109.464 20.1572 112.18 18.1729C114.895 16.1363 118.498 15.1182 122.989 15.1182ZM225.107 15.1182C228.815 15.1182 232.054 15.9539 234.821 17.625C237.641 19.2439 239.835 21.5152 241.401 24.4395C242.968 27.3638 243.751 30.7846 243.751 34.7012V37.7559H214.062C214.167 41.1503 215.291 43.8667 217.432 45.9033C219.625 47.8875 222.341 48.8799 225.578 48.8799C228.607 48.8798 230.878 48.2004 232.393 46.8428C233.959 45.485 235.161 43.9181 235.996 42.1426L242.654 45.5898C241.923 47.052 240.852 48.5922 239.442 50.2109C238.085 51.8297 236.283 53.1876 234.038 54.2842C231.793 55.3808 228.92 55.9297 225.421 55.9297C221.504 55.9296 218.084 55.1198 215.159 53.501C212.235 51.8299 209.938 49.5058 208.267 46.5293C206.648 43.5005 205.838 40.0019 205.838 36.0332V35.0928C205.838 31.0718 206.648 27.5732 208.267 24.5967C209.885 21.5679 212.131 19.2439 215.003 17.625C217.927 15.954 221.295 15.1182 225.107 15.1182ZM266.865 15.1182C270.573 15.1182 273.81 15.954 276.578 17.625C279.398 19.2438 281.592 21.5151 283.158 24.4395C284.725 27.3638 285.508 30.7846 285.508 34.7012V37.7559H255.82C255.925 41.1503 257.047 43.8667 259.188 45.9033C261.382 47.8875 264.097 48.8799 267.335 48.8799C270.364 48.8799 272.635 48.2004 274.149 46.8428C275.716 45.485 276.917 43.9181 277.753 42.1426L284.411 45.5898C283.68 47.052 282.609 48.5922 281.199 50.2109C279.842 51.8297 278.04 53.1876 275.795 54.2842C273.549 55.3808 270.677 55.9297 267.178 55.9297C263.261 55.9296 259.841 55.1197 256.917 53.501C253.993 51.8299 251.695 49.5059 250.023 46.5293C248.405 43.5005 247.595 40.0019 247.595 36.0332V35.0928C247.595 31.0719 248.405 27.5732 250.023 24.5967C251.642 21.5679 253.888 19.2439 256.76 17.625C259.684 15.9539 263.053 15.1182 266.865 15.1182ZM58.0449 0V21.6982H59.2979C59.8201 20.706 60.5512 19.7398 61.4912 18.7998C62.4833 17.8599 63.7626 17.1027 65.3291 16.5283C66.948 15.9017 68.985 15.5879 71.4395 15.5879C74.3638 15.5879 76.9488 16.2413 79.1943 17.5469C81.492 18.8524 83.2941 20.7063 84.5996 23.1084C85.905 25.4583 86.5576 28.3045 86.5576 31.6465V54.833H78.4893V32.2734C78.4893 28.9313 77.6535 26.4768 75.9824 24.9102C74.3114 23.2914 72.0141 22.4815 69.0898 22.4814C65.7477 22.4814 63.0581 23.5782 61.0215 25.7715C59.0371 27.9648 58.0449 31.1504 58.0449 35.3281V54.833H49.9766V7.67676H29.2178V54.833H20.7578V7.67676H0V0H58.0449ZM101.537 54.833H93.4688V16.2148H101.537V54.833ZM156.819 49.1143H158.073L166.533 0H181.338L189.798 49.1143H191.051L197.553 0H206.013L197.944 54.833H183.14L174.522 5.01367H173.27L164.731 54.833H149.848L141.78 0H150.239L156.819 49.1143ZM297.521 31.2549H298.773L313.97 16.2148H324.701L305.197 34.9365L325.328 54.833H314.675L298.773 38.7744H297.521V54.833H289.452V0H297.521V31.2549ZM338.321 54.833H330.253V16.2148H338.321V54.833ZM367.059 15.5879C369.983 15.5879 372.568 16.2414 374.813 17.5469C377.111 18.8524 378.912 20.7063 380.218 23.1084C381.523 25.4584 382.177 28.3043 382.177 31.6465V54.833H374.108V32.2734C374.108 28.9314 373.273 26.4768 371.602 24.9102C369.93 23.2913 367.632 22.4814 364.708 22.4814C361.366 22.4815 358.676 23.5782 356.64 25.7715C354.655 27.9648 353.663 31.1505 353.663 35.3281V54.833H345.595V16.2148H353.507V22.0117H354.76C355.491 20.4451 356.797 18.9828 358.677 17.625C360.557 16.2672 363.351 15.5879 367.059 15.5879ZM431.546 48.5723H442.691V6.96875H431.452V0.709961H462.39V6.96875H451.15V48.5723H462.39V54.8311H433.325L433.326 54.833H424.632L421.028 41.9082H399.565L395.962 54.833H387.188L402.855 0H417.738L431.546 48.5723ZM401.68 34.0752H418.913L410.923 5.24805H409.67L401.68 34.0752ZM225.029 22.2461C222.001 22.2461 219.52 23.0819 217.588 24.7529C215.708 26.3718 214.559 28.6439 214.142 31.5684H235.526C235.317 28.6439 234.273 26.3718 232.393 24.7529C230.513 23.0819 228.058 22.2461 225.029 22.2461ZM266.786 22.2461C263.757 22.2462 261.277 23.0819 259.345 24.7529C257.465 26.3718 256.316 28.644 255.898 31.5684H277.283C277.074 28.6439 276.029 26.3718 274.149 24.7529C272.269 23.082 269.815 22.2461 266.786 22.2461ZM340.318 6.9707H328.256V0.711914H340.318V6.9707ZM103.534 6.25781H91.4717V0H103.534V6.25781Z" fill="white"/>
</svg>
